<?xml version='1.0' encoding='ascii'?>
<svg xmlns="http://www.w3.org/2000/svg" height="141" version="1.1" width="128">
    <g id="View Layer_LineSet" inkscape:groupmode="lineset" inkscape:label="View Layer_LineSet" xmlns:inkscape="http://www.inkscape.org/namespaces/inkscape">
        <g id="strokes" inkscape:groupmode="layer" inkscape:label="strokes" xmlns:inkscape="http://www.inkscape.org/namespaces/inkscape">
            <path d=" M 24.226, 47.492 14.885, 51.063 11.282, 52.439 21.179, 53.871 31.076, 55.303 33.793, 55.696 33.912, 55.713 43.809, 57.145 47.797, 57.722 51.795, 58.300 54.414, 58.679 64.311, 60.111 74.208, 61.542 77.135, 61.966 86.476, 58.396 95.989, 54.760 96.329, 54.630 105.670, 51.059 115.011, 47.489 117.649, 46.481 107.752, 45.049 105.712, 44.754 " fill="none" stroke="rgb(0, 0, 0)" stroke-linecap="butt" stroke-linejoin="round" stroke-opacity="1.0" stroke-width="6.0" />
            <path d=" M 11.282, 89.730 11.282, 99.730 11.282, 109.730 11.282, 119.730 11.282, 127.589 21.179, 129.020 31.076, 130.452 40.973, 131.884 50.870, 133.316 60.767, 134.747 70.664, 136.179 77.135, 137.115 86.476, 133.545 95.817, 129.975 105.158, 126.404 114.499, 122.834 117.649, 121.630 117.649, 111.630 117.649, 101.630 117.649, 91.630 117.649, 85.107 " fill="none" stroke="rgb(0, 0, 0)" stroke-linecap="butt" stroke-linejoin="round" stroke-opacity="1.0" stroke-width="6.0" />
            <path d=" M 77.135, 61.966 77.135, 71.966 77.135, 73.642 77.135, 75.518 77.135, 85.518 77.135, 95.518 77.135, 105.518 77.135, 115.518 77.135, 125.518 77.135, 135.518 77.135, 137.115 " fill="none" stroke="rgb(0, 0, 0)" stroke-linecap="butt" stroke-linejoin="round" stroke-opacity="1.0" stroke-width="6.0" />
            <path d=" M 117.649, 46.481 119.443, 56.319 121.237, 66.156 123.031, 75.994 124.234, 82.590 117.649, 85.107 108.308, 88.677 98.967, 92.247 89.626, 95.817 83.721, 98.074 81.927, 88.237 80.132, 78.399 79.402, 74.393 79.322, 73.958 79.281, 73.730 77.487, 63.892 77.135, 61.966 76.038, 71.905 75.867, 73.458 75.669, 75.251 75.588, 75.982 74.491, 85.921 73.394, 95.861 73.084, 98.670 63.187, 97.239 53.290, 95.807 51.795, 95.591 41.898, 94.159 32.001, 92.727 22.104, 91.296 12.207, 89.864 11.282, 89.730 7.231, 89.144 7.631, 85.521 8.728, 75.582 9.825, 65.642 10.922, 55.703 11.282, 52.439 9.392, 62.259 7.501, 72.079 5.610, 81.898 4.697, 86.643 7.631, 85.521 " fill="none" stroke="rgb(0, 0, 0)" stroke-linecap="butt" stroke-linejoin="round" stroke-opacity="1.0" stroke-width="6.0" />
            <path d=" M 51.504, 47.045 51.795, 48.012 52.233, 49.462 53.483, 51.808 53.604, 51.955 55.169, 53.866 57.226, 55.556 59.575, 56.813 62.126, 57.589 64.780, 57.854 67.435, 57.599 69.990, 56.832 72.346, 55.584 74.413, 53.902 76.111, 51.851 77.376, 49.510 78.158, 46.968 78.427, 44.324 78.226, 42.231 " fill="none" stroke="rgb(0, 0, 0)" stroke-linecap="butt" stroke-linejoin="round" stroke-opacity="1.0" stroke-width="6.0" />
            <path d=" M 96.329, 54.630 97.303, 51.462 105.288, 50.923 105.733, 45.055 105.712, 44.754 105.323, 39.185 105.232, 38.505 97.250, 37.936 95.387, 31.757 92.610, 26.547 " fill="none" stroke="rgb(0, 0, 0)" stroke-linecap="butt" stroke-linejoin="round" stroke-opacity="1.0" stroke-width="6.0" />
            <path d=" M 78.249, 47.647 77.467, 50.189 76.203, 52.530 74.504, 54.582 72.438, 56.264 70.081, 57.512 67.526, 58.278 64.871, 58.534 62.217, 58.268 59.667, 57.492 57.318, 56.235 55.261, 54.545 53.684, 52.621 53.574, 52.488 52.324, 50.142 51.795, 48.388 51.557, 47.597 51.504, 47.045 51.303, 44.952 51.573, 42.308 51.795, 41.583 52.196, 40.280 52.354, 39.766 53.619, 37.425 53.771, 37.240 55.317, 35.374 57.384, 33.692 59.740, 32.443 62.295, 31.677 64.951, 31.421 67.604, 31.687 70.155, 32.463 72.504, 33.720 74.561, 35.410 76.247, 37.467 77.498, 39.813 77.768, 40.712 78.226, 42.231 78.264, 42.358 78.518, 45.003 78.249, 47.647 " fill="none" stroke="rgb(0, 0, 0)" stroke-linecap="butt" stroke-linejoin="round" stroke-opacity="1.0" stroke-width="6.0" />
            <path d=" M 105.323, 39.185 97.341, 38.616 " fill="none" stroke="rgb(0, 0, 0)" stroke-linecap="butt" stroke-linejoin="round" stroke-opacity="1.0" stroke-width="6.0" />
            <path d=" M 97.250, 37.936 97.341, 38.616 95.479, 32.436 92.442, 26.739 92.610, 26.547 97.711, 20.733 97.620, 20.054 93.770, 15.595 89.313, 11.738 83.260, 16.959 77.555, 13.906 71.408, 12.035 " fill="none" stroke="rgb(0, 0, 0)" stroke-linecap="butt" stroke-linejoin="round" stroke-opacity="1.0" stroke-width="6.0" />
            <path d=" M 97.711, 20.733 93.861, 16.275 89.404, 12.417 " fill="none" stroke="rgb(0, 0, 0)" stroke-linecap="butt" stroke-linejoin="round" stroke-opacity="1.0" stroke-width="6.0" />
            <path d=" M 89.313, 11.738 89.404, 12.417 83.351, 17.638 " fill="none" stroke="rgb(0, 0, 0)" stroke-linecap="butt" stroke-linejoin="round" stroke-opacity="1.0" stroke-width="6.0" />
            <path d=" M 83.260, 16.959 83.351, 17.638 77.646, 14.585 71.453, 12.700 71.408, 12.035 70.920, 4.745 70.829, 4.066 64.939, 3.629 59.046, 4.044 58.467, 11.996 52.262, 13.858 46.540, 16.889 40.517, 11.646 36.038, 15.486 32.161, 19.930 32.253, 20.610 37.205, 26.310 37.487, 26.635 " fill="none" stroke="rgb(0, 0, 0)" stroke-linecap="butt" stroke-linejoin="round" stroke-opacity="1.0" stroke-width="6.0" />
            <path d=" M 70.920, 4.745 65.030, 4.309 59.138, 4.723 " fill="none" stroke="rgb(0, 0, 0)" stroke-linecap="butt" stroke-linejoin="round" stroke-opacity="1.0" stroke-width="6.0" />
            <path d=" M 59.046, 4.044 59.138, 4.723 58.559, 12.675 " fill="none" stroke="rgb(0, 0, 0)" stroke-linecap="butt" stroke-linejoin="round" stroke-opacity="1.0" stroke-width="6.0" />
            <path d=" M 58.467, 11.996 58.559, 12.675 52.354, 14.537 46.631, 17.569 " fill="none" stroke="rgb(0, 0, 0)" stroke-linecap="butt" stroke-linejoin="round" stroke-opacity="1.0" stroke-width="6.0" />
            <path d=" M 46.540, 16.889 46.631, 17.569 40.609, 12.325 " fill="none" stroke="rgb(0, 0, 0)" stroke-linecap="butt" stroke-linejoin="round" stroke-opacity="1.0" stroke-width="6.0" />
            <path d=" M 40.517, 11.646 40.609, 12.325 36.130, 16.166 32.253, 20.610 " fill="none" stroke="rgb(0, 0, 0)" stroke-linecap="butt" stroke-linejoin="round" stroke-opacity="1.0" stroke-width="6.0" />
            <path d=" M 37.205, 26.310 34.325, 31.642 32.427, 37.814 24.442, 38.353 23.997, 44.221 24.226, 47.492 24.407, 50.091 24.499, 50.770 32.480, 51.339 33.793, 55.696 " fill="none" stroke="rgb(0, 0, 0)" stroke-linecap="butt" stroke-linejoin="round" stroke-opacity="1.0" stroke-width="6.0" />
            <path d=" M 37.487, 26.635 34.417, 32.321 32.518, 38.493 " fill="none" stroke="rgb(0, 0, 0)" stroke-linecap="butt" stroke-linejoin="round" stroke-opacity="1.0" stroke-width="6.0" />
            <path d=" M 32.427, 37.814 32.518, 38.493 24.533, 39.032 " fill="none" stroke="rgb(0, 0, 0)" stroke-linecap="butt" stroke-linejoin="round" stroke-opacity="1.0" stroke-width="6.0" />
            <path d=" M 24.442, 38.353 24.533, 39.032 24.088, 44.900 24.268, 47.476 24.499, 50.770 " fill="none" stroke="rgb(0, 0, 0)" stroke-linecap="butt" stroke-linejoin="round" stroke-opacity="1.0" stroke-width="6.0" />
            <path d=" M 51.795, 41.583 51.795, 48.012 " fill="none" stroke="rgb(0, 0, 0)" stroke-linecap="butt" stroke-linejoin="round" stroke-opacity="1.0" stroke-width="6.0" />
            <path d=" M 77.768, 40.712 67.871, 39.280 57.974, 37.848 53.771, 37.240 " fill="none" stroke="rgb(0, 0, 0)" stroke-linecap="butt" stroke-linejoin="round" stroke-opacity="1.0" stroke-width="6.0" />
        </g>
    </g>
</svg>
